<?xml version="1.0" encoding="UTF-8" standalone="no"?>
<svg
   preserveAspectRatio="xMidYMid"
   width="256"
   height="256"
   version="1.1"
   id="svg316"
   xmlns="http://www.w3.org/2000/svg"
   xmlns:svg="http://www.w3.org/2000/svg">
  <rect
     rx="20"
     width="100%"
     height="100%"
     fill="rgb(0,85,170)"
     id="rect308" />

  <!-- Used https://fonts.google.com/specimen/Coda and converted to path in Inkscape -->
  <g
     aria-label="Z27"
     id="text310"
     style="font-size:160px;font-family:Coda;dominant-baseline:middle;text-anchor:middle;fill:#ffffff">
    <path
       d="M 85.96875,186.86719 H 16.515625 l -0.78125,-13.75 44.609375,-74.375003 10,-16.40625 H 20.8125 l -1.328125,-11.875 h 65.625 l 0.859375,13.984375 -43.671875,74.218748 -9.84375,16.40625 H 85.96875 Z"
       id="path320" />
    <path
       d="m 168.78125,186.16406 h -67.42187 q 0.0781,-12.1875 1.5625,-19.53125 1.5625,-7.42187 5.15625,-12.5 3.59375,-5.07812 10.46875,-9.92187 4.60937,-3.20313 10.07812,-6.5625 5.54687,-3.35938 8.67187,-5.15625 3.125,-1.875 6.64063,-4.375 3.51562,-2.5 5.3125,-4.6875 1.875,-2.1875 3.51562,-5.39063 1.64063,-3.20312 2.26563,-7.26562 0.625,-4.14063 0.625,-9.6875 0,-3.359378 -0.0781,-5.156253 0,-1.875 -0.3125,-4.296875 -0.23437,-2.5 -0.78125,-3.75 -0.46875,-1.25 -1.40625,-2.8125 -0.85937,-1.5625 -2.26562,-2.265625 -1.32813,-0.78125 -3.28125,-1.484375 -1.95313,-0.78125 -4.60938,-1.015625 -2.65625,-0.3125 -6.09375,-0.3125 -6.48437,0 -10.23437,0.625 -3.67187,0.546875 -6.5625,2.578125 -2.8125,2.03125 -4.14062,5.78125 -1.25,3.671875 -1.79688,10 l -11.5625,-2.734375 q -0.0781,-0.703125 -0.0781,-2.109375 0,-13.359375 8.35937,-19.140625 8.35938,-5.859375 24.84375,-5.859375 6.40625,0 11.01562,0.546875 4.60938,0.46875 8.67188,1.796875 4.0625,1.328125 6.71875,3.671875 2.65625,2.265625 4.53125,5.859375 1.95312,3.515625 2.73437,8.515625 0.85938,4.921875 0.85938,11.562503 0,10.78125 -2.65625,18.125 -2.57813,7.26562 -7.42188,11.95312 -4.84375,4.6875 -13.35937,9.29688 -2.03125,1.17187 -5.39063,3.04687 -3.28125,1.875 -5.07812,2.89063 -1.71875,1.01562 -4.45313,2.65625 -2.65625,1.64062 -4.06249,2.73437 -1.40625,1.09375 -3.4375,2.8125 -2.03125,1.71875 -3.125,3.20313 -1.01563,1.40625 -2.26563,3.4375 -1.25,2.03125 -1.875,4.14062 -0.625,2.03125 -1.09375,4.60938 -0.39062,2.57812 -0.46875,5.46875 h 53.28125 z"
       id="path322" />
    <path
       d="m 240.26562,71.085937 v 13.28125 Q 216.75,145.22656 205.34375,186.86719 h -14.375 Q 205.42187,137.64844 227.0625,82.960937 h -44.92188 v -11.875 z"
       id="path324" />
  </g>
</svg>